IKResults
version=1
nRows=6
nColumns=63
inDegrees=yes

Units are S.I. units (second, meters, Newtons, ...)
If the header above contains a line with 'inDegrees', this indicates whether rotational values are in degrees (yes) or radians (no).

endheader
time	pelvis_tilt	pelvis_list	pelvis_rotation	pelvis_tx	pelvis_ty	pelvis_tz	hip_flexion_r	hip_adduction_r	hip_rotation_r	knee_angle_r	knee_angle_r_beta	ankle_angle_r	subtalar_angle_r	mtp_angle_r	hip_flexion_l	hip_adduction_l	hip_rotation_l	knee_angle_l	knee_angle_l_beta	ankle_angle_l	subtalar_angle_l	mtp_angle_l	L5_S1_Flex_Ext	L5_S1_Lat_Bending	L5_S1_axial_rotation	L4_L5_Flex_Ext	L4_L5_Lat_Bending	L4_L5_axial_rotation	L3_L4_Flex_Ext	L3_L4_Lat_Bending	L3_L4_axial_rotation	L2_L3_Flex_Ext	L2_L3_Lat_Bending	L2_L3_axial_rotation	L1_L2_Flex_Ext	L1_L2_Lat_Bending	L1_L2_axial_rotation	L1_T12_Flex_Ext	L1_T12_Lat_Bending	L1_T12_axial_rotation	Abs_r3	Abs_r2	Abs_r1	Abs_t1	Abs_t2	neck_flexion	neck_bending	neck_rotation	arm_flex_r	arm_add_r	arm_rot_r	elbow_flex_r	pro_sup_r	wrist_flex_r	wrist_dev_r	arm_flex_l	arm_add_l	arm_rot_l	elbow_flex_l	pro_sup_l	wrist_flex_l	wrist_dev_l
      0.03333333	     14.46054693	      8.33006386	     11.25191572	     -0.69506392	      0.96400590	      0.63396594	    -20.81483715	     -5.54075723	     -7.84825677	      4.17328212	      0.07283751	     13.43440077	    -11.24893190	      0.00000000	    -14.80300848	      5.93125804	     10.72700123	     14.52686504	      0.25354163	     21.02471423	    -18.14283579	      0.00000000	     -3.58146422	     -0.60135093	     -0.41963330	     -6.65113719	     -0.79979674	     -0.44586038	     -5.88398756	     -1.46212466	     -0.44586038	     -4.09325545	     -1.46212466	     -0.36717913	     -3.32574767	     -1.22627482	     -0.34095205	     -2.04644865	     -0.93149260	     -0.31472497	    -25.58204074	     -6.80260203	     -2.33387451	      0.00000000	      0.00000000	     10.43618941	      3.08103301	     -9.00034956	      3.52398525	     -7.83597471	     10.79446736	     28.33180893	     89.99559364	      0.00000000	      0.00000000	      7.05445816	    -13.91036414	     17.56877091	     33.96217186	     89.99559364	      0.00000000	      0.00000000
      0.06666667	     14.46058984	      8.33130292	     11.25148350	     -0.69505564	      0.96403265	      0.63396629	    -20.81327758	     -5.54080347	     -7.84796295	      4.17579753	      0.07288142	     13.43480612	    -11.24704147	      0.00000000	    -14.80329481	      5.93093893	     10.72650960	     14.52776542	      0.25355734	     21.02502548	    -18.13089888	      0.00000000	     -3.58149609	     -0.60132567	     -0.41964649	     -6.65119639	     -0.79976314	     -0.44587440	     -5.88403992	     -1.46206323	     -0.44587440	     -4.09329188	     -1.46206323	     -0.36719068	     -3.32577727	     -1.22622331	     -0.34096277	     -2.04646687	     -0.93145346	     -0.31473487	    -25.58226841	     -6.80231624	     -2.33394789	      0.00000000	      0.00000000	     10.43545952	      3.08104992	     -9.00017574	      3.52402126	     -7.83574271	     10.79474428	     28.33250802	     89.99559364	      0.00000000	      0.00000000	      7.05415500	    -13.90980983	     17.56928707	     33.96263436	     89.99559364	      0.00000000	      0.00000000
      0.10000000	     14.46008650	      8.33401407	     11.24989965	     -0.69501196	      0.96408069	      0.63396760	    -20.81022331	     -5.53890567	     -7.84609423	      4.17759386	      0.07291277	     13.43959576	    -11.24549670	      0.00000000	    -14.81167142	      5.93232934	     10.72391938	     14.53027187	      0.25360109	     21.02813158	    -18.12234370	      0.00000000	     -3.58092270	     -0.60132284	     -0.42006095	     -6.65013155	     -0.79975937	     -0.44631476	     -5.88309790	     -1.46205635	     -0.44631476	     -4.09263655	     -1.46205635	     -0.36755333	     -3.32524482	     -1.22621753	     -0.34129952	     -2.04613923	     -0.93144907	     -0.31504571	    -25.57817276	     -6.80228420	     -2.33625296	      0.00000000	      0.00000000	     10.43464124	      3.08137737	     -9.00013348	      3.52898826	     -7.83601124	     10.79597019	     28.33321353	     89.99559364	      0.00000000	      0.00000000	      7.05627743	    -13.90847058	     17.57189734	     33.96191660	     89.99559364	      0.00000000	      0.00000000
      0.13333333	     14.46068026	      8.33611561	     11.24973644	     -0.69496681	      0.96414357	      0.63396589	    -20.80907737	     -5.53827047	     -7.84546260	      4.18034954	      0.07296086	     13.44102382	    -11.24342787	      0.00000000	    -14.81274006	      5.93197402	     10.72326028	     14.53133444	      0.25361963	     21.02895646	    -18.11043846	      0.00000000	     -3.58076822	     -0.60128147	     -0.42020979	     -6.64984466	     -0.79970436	     -0.44647290	     -5.88284411	     -1.46195578	     -0.44647290	     -4.09246000	     -1.46195578	     -0.36768356	     -3.32510137	     -1.22613318	     -0.34142045	     -2.04605096	     -0.93138500	     -0.31515734	    -25.57706931	     -6.80181630	     -2.33708077	      0.00000000	      0.00000000	     10.43391838	      3.08143118	     -8.99991510	      3.53029520	     -7.83610230	     10.79620035	     28.33376055	     89.99559364	      0.00000000	      0.00000000	      7.05665443	    -13.90838233	     17.57238371	     33.96213286	     89.99559364	      0.00000000	      0.00000000
      0.16666667	     14.46738926	      8.34006030	     11.25784975	     -0.69482788	      0.96420946	      0.63391757	    -20.82076283	     -5.53353057	     -7.83173371	      4.18677537	      0.07307302	     13.47855957	    -11.23935626	      0.00000000	    -14.83681254	      5.93377608	     10.71329221	     14.53696032	      0.25371782	     21.04931819	    -18.11012189	      0.00000000	     -3.57806746	     -0.60112477	     -0.42376818	     -6.64482908	     -0.79949594	     -0.45025369	     -5.87840703	     -1.46157475	     -0.45025369	     -4.08937330	     -1.46157475	     -0.37079716	     -3.32259344	     -1.22581362	     -0.34431165	     -2.04450775	     -0.93114226	     -0.31782614	    -25.55777806	     -6.80004357	     -2.35687149	      0.00000000	      0.00000000	     10.43020878	      3.08404579	     -8.99857876	      3.55542876	     -7.83713865	     10.80122570	     28.32396269	     89.99559364	      0.00000000	      0.00000000	      7.05850461	    -13.91036968	     17.58204681	     33.94826048	     89.99559364	      0.00000000	      0.00000000
      0.20000000	     14.46806610	      8.34478286	     11.25889104	     -0.69476433	      0.96430032	      0.63391354	    -20.81887043	     -5.53220045	     -7.83041201	      4.19060908	      0.07313993	     13.48275877	    -11.23633709	      0.00000000	    -14.83885354	      5.93320148	     10.71227889	     14.53865446	      0.25374739	     21.05152476	    -18.09394303	      0.00000000	     -3.57808299	     -0.60098983	     -0.42408710	     -6.64485791	     -0.79931647	     -0.45059254	     -5.87843254	     -1.46124666	     -0.45059254	     -4.08939104	     -1.46124666	     -0.37107621	     -3.32260786	     -1.22553845	     -0.34457077	     -2.04451662	     -0.93093324	     -0.31806533	    -25.55788896	     -6.79851711	     -2.35864522	      0.00000000	      0.00000000	     10.42890843	      3.08426276	     -8.99819429	      3.55728967	     -7.83691422	     10.80185349	     28.32399503	     89.99559364	      0.00000000	      0.00000000	      7.05727859	    -13.91047477	     17.58312674	     33.94794169	     89.99559364	      0.00000000	      0.00000000
